<svg xmlns="http://www.w3.org/2000/svg" viewBox="0 0 619.97 166.46"><defs><style>.cls-1{fill:#fff;}.cls-2{fill:#fabf0b;}.cls-3{fill:#00b3e7;}</style></defs><g id="Capa_2" data-name="Capa 2"><g id="Capa_1-2" data-name="Capa 1"><circle id="Elipse_1" data-name="Elipse 1" class="cls-1" cx="83.23" cy="83.23" r="83.23"/><g id="Grupo_1724" data-name="Grupo 1724"><path id="Trazado_696" data-name="Trazado 696" class="cls-2" d="M24.87,63.66c7.1,0,13.71.18,19.58.58A141.54,141.54,0,0,1,60.1,66.1,42.58,42.58,0,0,1,71,69.36a6.9,6.9,0,0,1,3.69,3.4,3.87,3.87,0,0,1-1.37,4,23.93,23.93,0,0,1-7.26,4.58,98.24,98.24,0,0,1-14.33,5c7.64-.29,14.95-.29,21.83,0S87,87.16,93.13,88a138,138,0,0,1,17.56,3.57,84,84,0,0,1,15.54,5.87,40.76,40.76,0,0,1,15,12,23.88,23.88,0,0,1,4.44,11.13A72.73,72.73,0,1,0,13.13,63.87C17.2,63.74,21.14,63.67,24.87,63.66Z"/></g><g id="Grupo_1726" data-name="Grupo 1726"><g id="Grupo_1725" data-name="Grupo 1725"><path id="Trazado_697" data-name="Trazado 697" class="cls-3" d="M117.19,115a31.9,31.9,0,0,0-12.14-12.49,64.1,64.1,0,0,0-13.39-6.14A110.17,110.17,0,0,0,76,92.41a173.12,173.12,0,0,0-17.86-2.2c-6.33-.47-13.1-.67-20.25-.62l-2.7,0c-.9,0-1.82,0-2.75.05l-2.79.09-2.83.11,2.41-.65,2.3-.64,2.2-.64c.73-.21,1.4-.42,2.08-.63a97.49,97.49,0,0,0,12.9-4.9A26.18,26.18,0,0,0,55.55,78a4.64,4.64,0,0,0,1.78-3.85,5,5,0,0,0-2.68-3.26,30.36,30.36,0,0,0-9.29-3.27,113.45,113.45,0,0,0-14-2c-5.31-.47-11.34-.75-17.91-.84h-.61a72.76,72.76,0,0,0,97.7,85.78,54.32,54.32,0,0,0,8.21-17.3A26,26,0,0,0,117.19,115Z"/></g></g><path id="Trazado_698" data-name="Trazado 698" class="cls-3" d="M204.58,116.66V53.72h9.9a50.76,50.76,0,0,1,12.59,1.1,16.85,16.85,0,0,1,9,5.56A14.59,14.59,0,0,1,239.4,70a13.82,13.82,0,0,1-1.51,6.52,16.73,16.73,0,0,1-4.95,5.5,19.76,19.76,0,0,1,8.39,6.74A17.13,17.13,0,0,1,244,98.29a17.82,17.82,0,0,1-2.75,9.68,17.49,17.49,0,0,1-7.07,6.52,27.2,27.2,0,0,1-11.95,2.16Zm12-51.49V78.43h2.62a9.77,9.77,0,0,0,6.51-1.84,6.28,6.28,0,0,0,2.12-5,5.85,5.85,0,0,0-2-4.68,9.24,9.24,0,0,0-6.14-1.73Zm0,24v16.13h3a18.6,18.6,0,0,0,10.06-1.89,6.32,6.32,0,0,0,2.6-5.5,7.68,7.68,0,0,0-3.05-6.42,16.87,16.87,0,0,0-10.12-2.35Z"/><path id="Trazado_699" data-name="Trazado 699" class="cls-3" d="M276,68.91a24.72,24.72,0,0,1,12.39,3.3,24.19,24.19,0,0,1,12.3,21.14,24.43,24.43,0,0,1-3.3,12.32,23.5,23.5,0,0,1-8.92,9A24.69,24.69,0,0,1,276,117.87a23.24,23.24,0,0,1-17.1-7.15,24.68,24.68,0,0,1,.31-34.9l.62-.59A23.38,23.38,0,0,1,276,68.91Zm.19,11a12,12,0,0,0-9.06,3.78,13.43,13.43,0,0,0-3.62,9.69,13.74,13.74,0,0,0,3.57,9.85,12.84,12.84,0,0,0,18.2,0,15,15,0,0,0,.07-19.53,12.11,12.11,0,0,0-9.16-3.75Z"/><path id="Trazado_700" data-name="Trazado 700" class="cls-3" d="M310.24,70.09h11.69v4.77a27.91,27.91,0,0,1,7.19-4.66,17.42,17.42,0,0,1,6.6-1.31,16,16,0,0,1,11.75,4.83,16.64,16.64,0,0,1,4.06,12.16v30.76H340V96.25a51.25,51.25,0,0,0-.75-11.06,7.55,7.55,0,0,0-2.6-4.17A7.33,7.33,0,0,0,332,79.59,8.59,8.59,0,0,0,326,82a12.72,12.72,0,0,0-3.52,6.56,53.34,53.34,0,0,0-.51,9.45v18.7H310.24Z"/><path id="Trazado_701" data-name="Trazado 701" class="cls-3" d="M367.37,50.94a7.14,7.14,0,0,1,5.27,2.2,7.39,7.39,0,0,1,2.2,5.38,7.3,7.3,0,0,1-2.2,5.33,7.33,7.33,0,0,1-10.52-.05,7.57,7.57,0,0,1,5.22-12.9ZM361.53,70.1h11.68v46.56H361.53Z"/><path id="Trazado_702" data-name="Trazado 702" class="cls-2" d="M378.83,70.1h11.9l11.76,27.5,11.74-27.5h11.83l-19.79,46.56h-7.58Z"/><path id="Trazado_703" data-name="Trazado 703" class="cls-2" d="M437.45,50.94a7.11,7.11,0,0,1,5.27,2.2,7.39,7.39,0,0,1,2.2,5.38,7.3,7.3,0,0,1-2.2,5.33,7,7,0,0,1-5.21,2.2,7.12,7.12,0,0,1-5.31-2.25,7.57,7.57,0,0,1,5.22-12.9ZM431.61,70.1h11.68v46.56h-11.7Z"/><path id="Trazado_704" data-name="Trazado 704" class="cls-2" d="M488.26,70.09h11.68v46.55H488.26v-4.91a23,23,0,0,1-6.86,4.68,19.05,19.05,0,0,1-7.46,1.43,20.67,20.67,0,0,1-15.59-7,24.37,24.37,0,0,1-6.6-17.39,25,25,0,0,1,6.37-17.68,20.26,20.26,0,0,1,15.46-6.88,19.65,19.65,0,0,1,7.86,1.58,21.24,21.24,0,0,1,6.8,4.75ZM476,79.68a11.77,11.77,0,0,0-9,3.85,13.77,13.77,0,0,0-3.59,9.82,14,14,0,0,0,3.65,9.92,11.76,11.76,0,0,0,9,3.89,12,12,0,0,0,9.13-3.84,14.06,14.06,0,0,0,3.62-10,13.6,13.6,0,0,0-3.62-9.84A12.24,12.24,0,0,0,476,79.69Z"/><path id="Trazado_705" data-name="Trazado 705" class="cls-2" d="M511.41,70.1H523.1v48.1a28.4,28.4,0,0,1-1.31,9.9,10.2,10.2,0,0,1-4.13,5,12.7,12.7,0,0,1-6.8,1.75,28.31,28.31,0,0,1-8.73-1.75v-9.22a11.19,11.19,0,0,0,4.83,1.33,4.09,4.09,0,0,0,3.34-1.33,7.78,7.78,0,0,0,1.1-4.87Zm5.82-19.16a7.24,7.24,0,0,1,5.33,2.2,7.63,7.63,0,0,1,0,10.7,7.06,7.06,0,0,1-5.22,2.2A7.16,7.16,0,0,1,512,63.78a7.55,7.55,0,0,1-2.2-5.46A7.2,7.2,0,0,1,512,53.07a7.11,7.11,0,0,1,5.26-2.13Z"/><path id="Trazado_706" data-name="Trazado 706" class="cls-2" d="M581.15,96.77H543.63a12.51,12.51,0,0,0,4.35,7.89,13.59,13.59,0,0,0,9,2.93A15.57,15.57,0,0,0,568.24,103l9.84,4.63a23.23,23.23,0,0,1-8.8,7.69,27.55,27.55,0,0,1-12.19,2.51,24.14,24.14,0,0,1-17.85-6.92,23.51,23.51,0,0,1-6.89-17.3,24.35,24.35,0,0,1,6.87-17.7,23.09,23.09,0,0,1,17.22-7,23.93,23.93,0,0,1,17.88,7,25.4,25.4,0,0,1,6.89,18.59Zm-11.68-9.2a11.73,11.73,0,0,0-4.56-6.34A13.24,13.24,0,0,0,557,78.8a13.93,13.93,0,0,0-8.57,2.75,15.26,15.26,0,0,0-4.28,6Z"/><path id="Trazado_707" data-name="Trazado 707" class="cls-2" d="M619.11,76.61l-7.23,7.23a12.28,12.28,0,0,0-8-4.36,5.06,5.06,0,0,0-3.09.84,2.5,2.5,0,0,0-1.1,2.07,2.61,2.61,0,0,0,.71,1.74,13.49,13.49,0,0,0,3.49,2.16l4.28,2.13a25.42,25.42,0,0,1,9.28,6.81,14.19,14.19,0,0,1-2,18.49,17.49,17.49,0,0,1-12.21,4.15,19.43,19.43,0,0,1-16.26-8l7.18-7.83a16.65,16.65,0,0,0,4.82,3.85,10.61,10.61,0,0,0,4.9,1.48,5.83,5.83,0,0,0,3.72-1.1,3.2,3.2,0,0,0,1.41-2.57q0-2.7-5.08-5.26l-3.94-2q-11.3-5.7-11.29-14.25a12.34,12.34,0,0,1,4.25-9.43,15.47,15.47,0,0,1,10.89-3.92,18.9,18.9,0,0,1,15.32,7.7Z"/></g></g></svg>