<svg xmlns="http://www.w3.org/2000/svg" width="289.563" height="47.549" viewBox="0 0 289.563 47.549">
  <g id="Grupo_160" data-name="Grupo 160" transform="translate(12.563 958)">
    <circle id="Elipse_1" data-name="Elipse 1" cx="23.775" cy="23.775" r="23.775" transform="translate(-12.563 -958)" fill="#fff"/>
    <g id="Grupo_1724" data-name="Grupo 1724" transform="translate(-8.812 -955.017)">
      <path id="Trazado_696" data-name="Trazado 696" d="M246.5,482.415c2.028,0,3.914.052,5.593.168a40.3,40.3,0,0,1,4.47.531,12.072,12.072,0,0,1,3.124.931,1.963,1.963,0,0,1,1.055.969,1.115,1.115,0,0,1-.391,1.145,6.886,6.886,0,0,1-2.075,1.308,28.434,28.434,0,0,1-4.095,1.414c2.183-.085,4.272-.083,6.237,0s3.829.248,5.579.495a39.145,39.145,0,0,1,5.015,1.018,24.016,24.016,0,0,1,4.438,1.677,11.644,11.644,0,0,1,4.277,3.416A6.818,6.818,0,0,1,281,498.666a20.775,20.775,0,1,0-37.852-16.19C244.309,482.438,245.432,482.418,246.5,482.415Z" transform="translate(-243.145 -467.215)" fill="#fabf0b"/>
    </g>
    <g id="Grupo_1726" data-name="Grupo 1726" transform="translate(-9.563 -939.484)">
      <g id="Grupo_1725" data-name="Grupo 1725">
        <path id="Trazado_697" data-name="Trazado 697" d="M270.992,535.911a9.109,9.109,0,0,0-3.468-3.567,18.288,18.288,0,0,0-3.826-1.754,31.645,31.645,0,0,0-4.484-1.118,49.9,49.9,0,0,0-5.1-.628c-1.806-.132-3.742-.192-5.785-.176l-.77.011c-.258,0-.52.009-.785.016l-.8.024-.81.031.69-.184.656-.184c.214-.061.421-.121.628-.182s.4-.121.594-.181a27.927,27.927,0,0,0,3.686-1.4,7.469,7.469,0,0,0,1.965-1.257,1.318,1.318,0,0,0,.507-1.1,1.44,1.44,0,0,0-.763-.933,8.766,8.766,0,0,0-2.654-.934,32.576,32.576,0,0,0-3.991-.564c-1.517-.134-3.24-.214-5.117-.241h-.174a20.783,20.783,0,0,0,27.91,24.5,15.562,15.562,0,0,0,2.345-4.94A7.452,7.452,0,0,0,270.992,535.911Z" transform="translate(-240.515 -521.591)" fill="#00b3e7"/>
      </g>
    </g>
    <path id="Trazado_698" data-name="Trazado 698" d="M434.593,528.445V510.466h2.827a14.637,14.637,0,0,1,3.6.314,4.816,4.816,0,0,1,2.57,1.589,4.178,4.178,0,0,1,.955,2.738,3.993,3.993,0,0,1-.434,1.864,4.744,4.744,0,0,1-1.414,1.571,5.63,5.63,0,0,1,2.4,1.926,4.87,4.87,0,0,1,.757,2.731,5.1,5.1,0,0,1-.785,2.763,5.005,5.005,0,0,1-2.02,1.863,7.738,7.738,0,0,1-3.413.617Zm3.422-14.709v3.788h.749a2.783,2.783,0,0,0,1.858-.525,1.791,1.791,0,0,0,.608-1.431,1.67,1.67,0,0,0-.576-1.338,2.64,2.64,0,0,0-1.754-.495Zm0,6.845v4.606h.858a5.291,5.291,0,0,0,2.875-.539,1.812,1.812,0,0,0,.741-1.57,2.2,2.2,0,0,0-.87-1.834,4.811,4.811,0,0,0-2.893-.671Z" transform="translate(-388.717 -1453.121)" fill="#00b3e7"/>
    <path id="Trazado_699" data-name="Trazado 699" d="M488.751,525.682a7.06,7.06,0,0,1,3.539.942,6.978,6.978,0,0,1,2.571,9.559,6.737,6.737,0,0,1-2.547,2.562,7.042,7.042,0,0,1-3.558.922,6.634,6.634,0,0,1-4.883-2.042,7.05,7.05,0,0,1,.087-9.97q.087-.086.177-.168A6.677,6.677,0,0,1,488.751,525.682Zm.055,3.141a3.436,3.436,0,0,0-2.59,1.081,3.841,3.841,0,0,0-1.033,2.769,3.912,3.912,0,0,0,1.021,2.811,3.42,3.42,0,0,0,2.59,1.076,3.456,3.456,0,0,0,2.609-1.087,4.291,4.291,0,0,0,.019-5.579,3.456,3.456,0,0,0-2.615-1.071Z" transform="translate(-422.476 -1463.997)" fill="#00b3e7"/>
    <path id="Trazado_700" data-name="Trazado 700" d="M540.256,526h3.338v1.363a7.989,7.989,0,0,1,2.056-1.332,4.962,4.962,0,0,1,1.885-.374,4.571,4.571,0,0,1,3.357,1.381,4.748,4.748,0,0,1,1.159,3.473V539.3h-3.3v-5.824a14.714,14.714,0,0,0-.214-3.162,2.158,2.158,0,0,0-.744-1.189,2.082,2.082,0,0,0-1.31-.41,2.457,2.457,0,0,0-1.737.678,3.611,3.611,0,0,0-1.005,1.874,15.092,15.092,0,0,0-.146,2.7v5.34h-3.339Z" transform="translate(-464.197 -1463.98)" fill="#00b3e7"/>
    <path id="Trazado_701" data-name="Trazado 701" d="M592.06,507.684a2.042,2.042,0,0,1,1.5.628,2.114,2.114,0,0,1,.628,1.539,2.087,2.087,0,0,1-.628,1.522,2.019,2.019,0,0,1-1.488.628,2.041,2.041,0,0,1-1.517-.642,2.161,2.161,0,0,1,1.492-3.685Zm-1.668,5.475h3.338v13.3h-3.338Z" transform="translate(-499.683 -1451.134)" fill="#00b3e7"/>
    <path id="Trazado_702" data-name="Trazado 702" d="M608.848,526.875h3.4l3.36,7.853,3.352-7.853h3.382l-5.654,13.3h-2.164Z" transform="translate(-513.196 -1464.849)" fill="#fabf0b"/>
    <path id="Trazado_703" data-name="Trazado 703" d="M662.143,507.684a2.041,2.041,0,0,1,1.5.628,2.113,2.113,0,0,1,.628,1.539,2.087,2.087,0,0,1-.628,1.522,2.018,2.018,0,0,1-1.487.628,2.04,2.04,0,0,1-1.517-.642,2.147,2.147,0,0,1-.628-1.558,2.125,2.125,0,0,1,2.12-2.127Zm-1.668,5.475h3.336v13.3h-3.342Z" transform="translate(-549.746 -1451.134)" fill="#fabf0b"/>
    <path id="Trazado_704" data-name="Trazado 704" d="M692.179,526.006h3.336v13.3h-3.336v-1.4a6.569,6.569,0,0,1-1.96,1.338,5.482,5.482,0,0,1-2.13.408,5.915,5.915,0,0,1-4.456-2,6.968,6.968,0,0,1-1.885-4.968,7.144,7.144,0,0,1,1.819-5.048,5.794,5.794,0,0,1,4.418-1.968,5.613,5.613,0,0,1,2.246.453,6.123,6.123,0,0,1,1.941,1.357Zm-3.507,2.739a3.368,3.368,0,0,0-2.569,1.1,3.94,3.94,0,0,0-1.024,2.805,3.983,3.983,0,0,0,1.042,2.835,3.374,3.374,0,0,0,2.565,1.112,3.439,3.439,0,0,0,2.607-1.1,4,4,0,0,0,1.035-2.867,3.884,3.884,0,0,0-1.035-2.811,3.478,3.478,0,0,0-2.62-1.07Z" transform="translate(-565.268 -1463.985)" fill="#fabf0b"/>
    <path id="Trazado_705" data-name="Trazado 705" d="M734.8,513.182h3.338V526.92a8.092,8.092,0,0,1-.372,2.827,2.907,2.907,0,0,1-1.181,1.437,3.614,3.614,0,0,1-1.943.5,8.143,8.143,0,0,1-2.493-.5v-2.633a3.235,3.235,0,0,0,1.381.38,1.172,1.172,0,0,0,.953-.38,2.235,2.235,0,0,0,.314-1.391Zm1.662-5.475a2.069,2.069,0,0,1,1.522.628,2.182,2.182,0,0,1,0,3.058,2.018,2.018,0,0,1-1.49.628,2.042,2.042,0,0,1-1.522-.646,2.155,2.155,0,0,1-.628-1.56,2.054,2.054,0,0,1,.617-1.5,2.032,2.032,0,0,1,1.5-.609Z" transform="translate(-601.272 -1451.156)" fill="#fabf0b"/>
    <path id="Trazado_706" data-name="Trazado 706" d="M776.3,533.606H765.582a3.573,3.573,0,0,0,1.241,2.255,3.893,3.893,0,0,0,2.574.837,4.444,4.444,0,0,0,3.214-1.308l2.811,1.321a6.645,6.645,0,0,1-2.513,2.2,7.885,7.885,0,0,1-3.484.715,6.882,6.882,0,0,1-5.1-1.974,6.717,6.717,0,0,1-1.968-4.944,6.942,6.942,0,0,1,1.962-5.054,6.587,6.587,0,0,1,4.919-2.011,6.833,6.833,0,0,1,5.108,2.011,7.262,7.262,0,0,1,1.968,5.31Zm-3.336-2.628a3.349,3.349,0,0,0-1.3-1.809,3.778,3.778,0,0,0-2.259-.7,3.991,3.991,0,0,0-2.449.785,4.355,4.355,0,0,0-1.223,1.728Z" transform="translate(-622.855 -1463.965)" fill="#fabf0b"/>
    <path id="Trazado_707" data-name="Trazado 707" d="M826.141,527.874l-2.065,2.066a3.494,3.494,0,0,0-2.285-1.246,1.44,1.44,0,0,0-.881.239.714.714,0,0,0-.314.592.729.729,0,0,0,.2.495,3.721,3.721,0,0,0,1,.617l1.222.611a7.191,7.191,0,0,1,2.651,1.944,4.049,4.049,0,0,1-.581,5.281,4.986,4.986,0,0,1-3.488,1.186,5.549,5.549,0,0,1-4.646-2.273L819,535.149a4.747,4.747,0,0,0,1.376,1.1,3.034,3.034,0,0,0,1.4.422,1.666,1.666,0,0,0,1.063-.314.92.92,0,0,0,.4-.733q0-.771-1.453-1.5l-1.125-.562q-3.226-1.626-3.226-4.069a3.535,3.535,0,0,1,1.216-2.7,4.417,4.417,0,0,1,3.11-1.118,5.4,5.4,0,0,1,4.376,2.2Z" transform="translate(-661.853 -1463.989)" fill="#fabf0b"/>
    <text id="_SINCE_1984" data-name="|  SINCE 1984" transform="translate(174 -926)" fill="#5f5f5f" font-size="15" font-family="FuturaStd-Book, Futura Std"><tspan x="0" y="0" xml:space="preserve">|  SINCE 1984</tspan></text>
  </g>
</svg>
