<?xml version="1.0" encoding="utf-8"?>
<!-- Generator: Adobe Illustrator 25.0.0, SVG Export Plug-In . SVG Version: 6.00 Build 0)  -->
<svg version="1.1" id="Capa_1" xmlns="http://www.w3.org/2000/svg" xmlns:xlink="http://www.w3.org/1999/xlink" x="0px" y="0px"
	 viewBox="0 0 286.6 47.5" style="enable-background:new 0 0 286.6 47.5;" xml:space="preserve">
<style type="text/css">
	.st0{fill:#FFFFFF;}
	.st1{fill:#FABF0B;}
	.st2{fill:#00B3E7;}
	.st3{enable-background:new    ;}
	.st4{fill:#5F5F5F;}
</style>
<g id="Grupo_178" transform="translate(-47.437 1084)">
	<g id="Grupo_177" transform="translate(-182.577 -1540.771)">
		<circle id="Elipse_1" class="st0" cx="253.8" cy="480.5" r="23.8"/>
		<g id="Grupo_1724" transform="translate(233.765 459.754)">
			<path id="Trazado_696" class="st1" d="M3.4,15.2c2,0,3.9,0.1,5.6,0.2c1.5,0.1,3,0.3,4.5,0.5c1.1,0.2,2.1,0.5,3.1,0.9
				c0.5,0.2,0.8,0.5,1.1,1c0.1,0.4,0,0.9-0.4,1.1c-0.6,0.6-1.3,1-2.1,1.3c-1.3,0.6-2.7,1-4.1,1.4c2.2-0.1,4.3-0.1,6.2,0
				s3.8,0.2,5.6,0.5c1.7,0.2,3.4,0.6,5,1c1.5,0.4,3,1,4.4,1.7c1.7,0.8,3.1,2,4.3,3.4c0.7,0.9,1.1,2,1.3,3.2
				c5.9-9.8,2.7-22.6-7.1-28.5C20.9-2.9,8.1,0.3,2.2,10.1c-1,1.6-1.7,3.3-2.2,5.2C1.2,15.2,2.3,15.2,3.4,15.2z"/>
		</g>
		<g id="Grupo_1726" transform="translate(233.014 475.287)">
			<g id="Grupo_1725">
				<path id="Trazado_697" class="st2" d="M30.5,14.3c-0.8-1.5-2-2.7-3.5-3.6C25.8,10,24.5,9.4,23.2,9c-1.5-0.5-3-0.9-4.5-1.1
					c-1.7-0.3-3.4-0.5-5.1-0.6c-1.8-0.1-3.7-0.2-5.8-0.2L7,7.1c-0.3,0-0.5,0-0.8,0l-0.8,0l-0.8,0L5.3,7L6,6.8
					c0.2-0.1,0.4-0.1,0.6-0.2S7,6.5,7.2,6.4C8.5,6,9.7,5.6,10.9,5c0.7-0.3,1.4-0.7,2-1.3c0.3-0.3,0.5-0.7,0.5-1.1
					c-0.1-0.4-0.4-0.7-0.8-0.9C11.8,1.3,10.9,1,10,0.8C8.6,0.5,7.3,0.3,6,0.2C4.5,0.1,2.7,0,0.9,0H0.7c-2.9,11.1,3.8,22.5,14.9,25.3
					c4.3,1.1,8.9,0.8,13-0.8c1.1-1.5,1.9-3.2,2.3-4.9C31.4,17.8,31.3,16,30.5,14.3z"/>
			</g>
		</g>
		<path id="Trazado_698" class="st2" d="M288.5,490.1v-18h2.8c1.2,0,2.4,0.1,3.6,0.3c1,0.2,1.9,0.8,2.6,1.6c0.6,0.8,1,1.7,1,2.7
			c0,0.6-0.1,1.3-0.4,1.9c-0.3,0.6-0.8,1.2-1.4,1.6c1,0.4,1.8,1.1,2.4,1.9c0.5,0.8,0.8,1.8,0.8,2.7c0,1-0.3,1.9-0.8,2.8
			c-0.5,0.8-1.2,1.4-2,1.9c-1.1,0.5-2.2,0.7-3.4,0.6L288.5,490.1z M291.9,475.4v3.8h0.7c0.7,0.1,1.3-0.1,1.9-0.5
			c0.4-0.4,0.6-0.9,0.6-1.4c0-0.5-0.2-1-0.6-1.3c-0.5-0.4-1.1-0.5-1.8-0.5L291.9,475.4z M291.9,482.2v4.6h0.9c1,0.1,2-0.1,2.9-0.5
			c0.5-0.4,0.8-1,0.7-1.6c0-0.7-0.3-1.4-0.9-1.8c-0.9-0.5-1.9-0.8-2.9-0.7L291.9,482.2z"/>
		<path id="Trazado_699" class="st2" d="M308.9,476.5c1.2,0,2.5,0.3,3.5,0.9c3.3,1.9,4.5,6.2,2.6,9.5c0,0,0,0,0,0
			c-0.6,1.1-1.5,2-2.5,2.6c-1.1,0.6-2.3,0.9-3.6,0.9c-1.8,0-3.6-0.7-4.9-2c-2.7-2.8-2.7-7.2,0.1-10c0,0,0,0,0,0
			c0.1-0.1,0.1-0.1,0.2-0.2C305.5,477.1,307.1,476.4,308.9,476.5z M308.9,479.6c-1,0-1.9,0.4-2.6,1.1c-0.7,0.7-1.1,1.7-1,2.8
			c0,1,0.3,2,1,2.8c0.7,0.7,1.6,1.1,2.6,1.1c1,0,1.9-0.4,2.6-1.1c1.4-1.6,1.4-4,0-5.6C310.8,480,309.9,479.6,308.9,479.6
			L308.9,479.6z"/>
		<path id="Trazado_700" class="st2" d="M318.6,476.8h3.3v1.4c0.6-0.5,1.3-1,2.1-1.3c0.6-0.2,1.2-0.4,1.9-0.4c1.3,0,2.5,0.5,3.4,1.4
			c0.8,1,1.3,2.2,1.2,3.5v8.8h-3.3v-5.8c0-1.1,0-2.1-0.2-3.2c-0.1-0.5-0.4-0.9-0.7-1.2c-0.4-0.3-0.8-0.4-1.3-0.4
			c-0.6,0-1.3,0.2-1.7,0.7c-0.5,0.5-0.9,1.2-1,1.9c-0.1,0.9-0.2,1.8-0.1,2.7v5.3h-3.3L318.6,476.8z"/>
		<path id="Trazado_701" class="st2" d="M335,471.3c0.6,0,1.1,0.2,1.5,0.6c0.4,0.4,0.6,1,0.6,1.5c0,0.6-0.2,1.1-0.6,1.5
			c-0.4,0.4-0.9,0.6-1.5,0.6c-0.6,0-1.1-0.2-1.5-0.6c-0.8-0.8-0.8-2.2,0-3.1C333.9,471.5,334.4,471.3,335,471.3L335,471.3z
			 M333.3,476.8h3.3v13.3h-3.3V476.8z"/>
		<path id="Trazado_702" class="st1" d="M338.2,476.8h3.4l3.4,7.9l3.4-7.9h3.4l-5.7,13.3h-2.2L338.2,476.8z"/>
		<path id="Trazado_703" class="st1" d="M355,471.3c0.6,0,1.1,0.2,1.5,0.6c0.4,0.4,0.6,1,0.6,1.5c0,0.6-0.2,1.1-0.6,1.5
			c-0.4,0.4-0.9,0.6-1.5,0.6c-0.6,0-1.1-0.2-1.5-0.6c-0.4-0.4-0.6-1-0.6-1.6C352.8,472.3,353.8,471.3,355,471.3L355,471.3z
			 M353.3,476.8h3.3v13.3h-3.3L353.3,476.8z"/>
		<path id="Trazado_704" class="st1" d="M369.5,476.8h3.3v13.3h-3.3v-1.4c-0.6,0.6-1.2,1-2,1.3c-0.7,0.3-1.4,0.4-2.1,0.4
			c-1.7,0-3.3-0.7-4.5-2c-1.3-1.3-1.9-3.1-1.9-5c-0.1-1.9,0.6-3.7,1.8-5c1.1-1.3,2.7-2,4.4-2c0.8,0,1.5,0.1,2.2,0.5
			c0.7,0.3,1.4,0.8,1.9,1.4L369.5,476.8z M366,479.5c-1,0-1.9,0.4-2.6,1.1c-0.7,0.8-1.1,1.8-1,2.8c0,1,0.3,2.1,1,2.8
			c0.7,0.7,1.6,1.1,2.6,1.1c1,0,1.9-0.4,2.6-1.1c0.7-0.8,1.1-1.8,1-2.9c0-1-0.3-2.1-1-2.8C367.9,479.9,367,479.5,366,479.5
			L366,479.5z"/>
		<path id="Trazado_705" class="st1" d="M376.1,476.8h3.3v13.7c0,1-0.1,1.9-0.4,2.8c-0.2,0.6-0.6,1.1-1.2,1.4
			c-0.6,0.3-1.3,0.5-1.9,0.5c-0.9,0-1.7-0.2-2.5-0.5v-2.6c0.4,0.2,0.9,0.4,1.4,0.4c0.4,0,0.7-0.1,1-0.4c0.3-0.4,0.4-0.9,0.3-1.4
			L376.1,476.8z M377.8,471.3c0.6,0,1.1,0.2,1.5,0.6c0.8,0.8,0.8,2.2,0,3.1c-0.4,0.4-0.9,0.6-1.5,0.6c-0.6,0-1.1-0.2-1.5-0.6
			c-0.4-0.4-0.6-1-0.6-1.6c0-0.6,0.2-1.1,0.6-1.5C376.7,471.5,377.2,471.3,377.8,471.3L377.8,471.3z"/>
		<path id="Trazado_706" class="st1" d="M396,484.4h-10.7c0.1,0.9,0.6,1.7,1.2,2.3c0.7,0.6,1.6,0.9,2.6,0.8c1.2,0,2.4-0.5,3.2-1.3
			l2.8,1.3c-0.6,0.9-1.5,1.7-2.5,2.2c-1.1,0.5-2.3,0.7-3.5,0.7c-1.9,0.1-3.7-0.6-5.1-2c-1.3-1.3-2-3.1-2-4.9c-0.1-1.9,0.6-3.7,2-5.1
			c1.3-1.3,3.1-2.1,4.9-2c1.9-0.1,3.8,0.7,5.1,2c1.3,1.4,2.1,3.3,2,5.3L396,484.4z M392.7,481.8c-0.2-0.7-0.7-1.4-1.3-1.8
			c-0.7-0.5-1.5-0.7-2.3-0.7c-0.9,0-1.7,0.3-2.4,0.8c-0.5,0.5-1,1.1-1.2,1.7L392.7,481.8z"/>
		<path id="Trazado_707" class="st1" d="M406.9,478.7l-2.1,2.1c-0.6-0.7-1.4-1.1-2.3-1.2c-0.3,0-0.6,0.1-0.9,0.2
			c-0.2,0.1-0.3,0.4-0.3,0.6c0,0.2,0.1,0.4,0.2,0.5c0.3,0.3,0.6,0.5,1,0.6l1.2,0.6c1,0.4,1.9,1.1,2.7,1.9c1.1,1.7,0.9,3.9-0.6,5.3
			c-1,0.8-2.2,1.3-3.5,1.2c-1.8,0.1-3.6-0.8-4.6-2.3l2-2.2c0.4,0.4,0.9,0.8,1.4,1.1c0.4,0.3,0.9,0.4,1.4,0.4c0.4,0,0.8-0.1,1.1-0.3
			c0.2-0.2,0.4-0.4,0.4-0.7c0-0.5-0.5-1-1.5-1.5l-1.1-0.6c-2.2-1.1-3.2-2.4-3.2-4.1c0-1,0.4-2,1.2-2.7c0.9-0.8,2-1.2,3.1-1.1
			C404.2,476.4,405.8,477.3,406.9,478.7L406.9,478.7z"/>
	</g>
	<g class="st3">
		<path class="st4" d="M238.3-1052h-1.3v-10.9h1.3V-1052z"/>
	</g>
	<g class="st3">
		<path class="st4" d="M256-1061.6l-1.4,0.8c-0.3-0.4-0.5-0.7-0.7-0.9c-0.2-0.2-0.6-0.2-0.9-0.2c-0.5,0-0.9,0.1-1.2,0.4
			c-0.3,0.3-0.5,0.6-0.5,1c0,0.6,0.4,1,1.2,1.3l1.1,0.5c0.9,0.4,1.6,0.8,2,1.4c0.4,0.5,0.6,1.2,0.6,2c0,1-0.3,1.9-1,2.6
			c-0.7,0.7-1.6,1-2.6,1c-1,0-1.8-0.3-2.4-0.9c-0.6-0.6-1-1.4-1.2-2.5l1.7-0.4c0.1,0.7,0.2,1.1,0.4,1.4c0.4,0.5,0.9,0.7,1.5,0.7
			c0.5,0,1-0.2,1.3-0.5s0.5-0.8,0.5-1.4c0-0.2,0-0.4-0.1-0.6c-0.1-0.2-0.2-0.4-0.3-0.5c-0.1-0.2-0.3-0.3-0.5-0.4
			c-0.2-0.1-0.4-0.3-0.7-0.4l-1.1-0.5c-1.5-0.7-2.3-1.6-2.3-2.9c0-0.8,0.3-1.6,1-2.1c0.7-0.6,1.5-0.9,2.4-0.9
			C254.2-1063.5,255.2-1062.9,256-1061.6z"/>
		<path class="st4" d="M260-1063.3v11.3h-1.7v-11.3H260z"/>
		<path class="st4" d="M262.8-1052v-12.1l8.2,8.6v-7.9h1.7v12l-8.2-8.6v7.9H262.8z"/>
		<path class="st4" d="M283.9-1062.7v2c-1-0.8-2-1.2-3.1-1.2c-1.2,0-2.1,0.4-2.9,1.3c-0.8,0.8-1.2,1.8-1.2,3c0,1.2,0.4,2.2,1.2,3
			c0.8,0.8,1.8,1.2,2.9,1.2c0.6,0,1.1-0.1,1.5-0.3c0.2-0.1,0.5-0.2,0.7-0.4s0.5-0.4,0.8-0.6v2.1c-1,0.6-2,0.8-3.1,0.8
			c-1.6,0-3-0.6-4.1-1.7c-1.1-1.1-1.7-2.5-1.7-4.1c0-1.4,0.5-2.7,1.4-3.9c1.2-1.4,2.7-2.1,4.5-2.1
			C281.9-1063.5,282.9-1063.3,283.9-1062.7z"/>
		<path class="st4" d="M292.3-1061.7h-4.5v2.7h4.4v1.6h-4.4v3.8h4.5v1.6H286v-11.3h6.2V-1061.7z"/>
		<path class="st4" d="M301.9-1061.7h-2l0.9-1.6h2.7v11.3h-1.7V-1061.7z"/>
		<path class="st4" d="M309.2-1051.6l-1.3-0.9l2.7-3.7c-0.1,0-0.3,0-0.4,0s-0.2,0-0.2,0c-0.9,0-1.7-0.3-2.4-1c-0.7-0.7-1-1.5-1-2.5
			c0-1,0.4-1.9,1.1-2.7c0.7-0.7,1.6-1.1,2.7-1.1c1,0,1.9,0.4,2.7,1.1c0.8,0.7,1.1,1.6,1.1,2.6c0,0.9-0.4,1.8-1.1,2.8L309.2-1051.6z
			 M308.3-1059.8c0,0.6,0.2,1.1,0.6,1.5c0.4,0.4,0.9,0.6,1.5,0.6c0.6,0,1.1-0.2,1.5-0.6c0.4-0.4,0.6-0.9,0.6-1.5s-0.2-1.1-0.6-1.5
			c-0.4-0.4-0.9-0.6-1.5-0.6c-0.6,0-1.1,0.2-1.5,0.6C308.5-1060.9,308.3-1060.4,308.3-1059.8z"/>
		<path class="st4" d="M317.7-1057.9c-0.8-0.6-1.2-1.4-1.2-2.4c0-0.9,0.3-1.7,0.9-2.3c0.6-0.6,1.4-0.9,2.4-0.9
			c0.9,0,1.7,0.3,2.3,0.9c0.6,0.6,0.9,1.4,0.9,2.3c0,1-0.4,1.8-1.2,2.4c0.5,0.2,0.8,0.6,1.1,1.1c0.3,0.5,0.4,1,0.4,1.6
			c0,1-0.3,1.8-1,2.5s-1.5,1-2.5,1c-1,0-1.9-0.3-2.6-1c-0.7-0.6-1-1.5-1-2.4C316.2-1056.5,316.7-1057.4,317.7-1057.9z M317.8-1055.3
			c0,0.5,0.2,1,0.5,1.3c0.4,0.4,0.8,0.6,1.3,0.6c0.5,0,1-0.2,1.3-0.5c0.4-0.4,0.5-0.8,0.5-1.3c0-0.5-0.2-1-0.5-1.3s-0.8-0.5-1.3-0.5
			c-0.5,0-1,0.2-1.3,0.5C318-1056.2,317.8-1055.8,317.8-1055.3z M318.1-1060.3c0,0.5,0.2,0.9,0.5,1.2c0.3,0.3,0.7,0.5,1.2,0.5
			c0.5,0,0.9-0.2,1.2-0.5c0.3-0.3,0.5-0.7,0.5-1.2s-0.2-0.9-0.5-1.2s-0.7-0.5-1.2-0.5c-0.5,0-0.9,0.2-1.2,0.5
			S318.1-1060.7,318.1-1060.3z"/>
		<path class="st4" d="M331.6-1055.2h1.2v1.6h-1.2v1.6h-1.7v-1.6h-5.6l7.3-10.5V-1055.2z M329.9-1055.2v-3.8l-2.6,3.8H329.9z"/>
	</g>
</g>
</svg>
