<svg id="mensajero" xmlns="http://www.w3.org/2000/svg" width="59.994" height="60" viewBox="0 0 59.994 60">
  <path id="Trazado_406" data-name="Trazado 406" d="M30.022.006a29.425,29.425,0,0,0-30,28.747,28.2,28.2,0,0,0,10,21.4v8.6a1.25,1.25,0,0,0,1.912,1.06L18.9,55.458A30.951,30.951,0,0,0,30.022,57.5a29.425,29.425,0,0,0,30-28.747A29.425,29.425,0,0,0,30.022.006Z" transform="translate(-0.025 0)" fill="#2196f3"/>
  <path id="Trazado_407" data-name="Trazado 407" d="M125.117,171.2a1.25,1.25,0,0,0-1.6-.35l-13,7.087L102.432,171a1.25,1.25,0,0,0-1.7.065l-15,15a1.25,1.25,0,0,0,1.482,1.98l13-7.087,8.094,6.937a1.25,1.25,0,0,0,1.7-.065l15-15A1.25,1.25,0,0,0,125.117,171.2Z" transform="translate(-75.372 -150.693)" fill="#fafafa"/>
</svg>
