<svg xmlns="http://www.w3.org/2000/svg" width="75" height="75" viewBox="0 0 75 75">
  <g id="Grupo_154" data-name="Grupo 154" transform="translate(-1025 -678)">
    <circle id="Elipse_56" data-name="Elipse 56" cx="37.5" cy="37.5" r="37.5" transform="translate(1025 678)" fill="#efb40b"/>
    <g id="filosofia" transform="translate(1044 695)">
      <path id="Trazado_413" data-name="Trazado 413" d="M242.368,150.035c-.136.009-1.607.192-3.314,2.395,1.707,2.2,3.178,2.385,3.314,2.395a2.395,2.395,0,0,0,0-4.79Z" transform="translate(-221.967 -138.048)" fill="#fff"/>
      <path id="Trazado_414" data-name="Trazado 414" d="M60.806,24.324c-.044-.045-4.431-4.509-4.431-8.743a15.583,15.583,0,0,0-30.963-2.507c-.86,5.475,1.038,8.775,3.048,12.269,1.94,3.372,3.947,6.86,3.947,13.012v2.553H46.787V35.955h8.389V28.377l6.9-2.77ZM45.588,19.176c-.273,0-2.458-.09-4.794-2.809-2.336,2.719-4.521,2.809-4.794,2.809a4.794,4.794,0,1,1,0-9.588c.273,0,2.458.09,4.794,2.809,2.336-2.719,4.521-2.809,4.794-2.809a4.794,4.794,0,1,1,0,9.588Z" transform="translate(-25.199 0)" fill="#fff"/>
      <path id="Trazado_415" data-name="Trazado 415" d="M132.784,150.035a2.4,2.4,0,0,0,.011,4.792c.041,0,1.552-.138,3.3-2.4C134.391,150.227,132.92,150.044,132.784,150.035Z" transform="translate(-121.993 -138.048)" fill="#fff"/>
    </g>
  </g>
</svg>
