<svg xmlns="http://www.w3.org/2000/svg" width="75" height="75" viewBox="0 0 75 75">
  <g id="Grupo_157" data-name="Grupo 157" transform="translate(-646 -678)">
    <circle id="Elipse_55" data-name="Elipse 55" cx="37.5" cy="37.5" r="37.5" transform="translate(646 678)" fill="#efb40b"/>
    <path id="encontrar" d="M40.457,23.495l-6.619-17.6s0-.007,0-.01l0,0A5.987,5.987,0,0,0,22.241,7.988v7.7H18.819v-7.7A5.988,5.988,0,0,0,7.225,5.882s0,.007,0,.01L.6,23.49a0,0,0,0,1,0,0,9.411,9.411,0,1,0,18.218,3.316v-.855h3.422v.855a9.41,9.41,0,1,0,18.217-3.312Zm-31.048,9.3A5.988,5.988,0,1,1,15.4,26.807,5.994,5.994,0,0,1,9.409,32.795Zm22.241,0a5.992,5.992,0,1,1,5.988-5.988A5.994,5.994,0,0,1,31.65,32.795Z" transform="translate(663.125 696.438)" fill="#5a5050"/>
  </g>
</svg>
