<svg id="whatsapp_1_" data-name="whatsapp (1)" xmlns="http://www.w3.org/2000/svg" width="60" height="60" viewBox="0 0 60 60">
  <path id="Trazado_408" data-name="Trazado 408" d="M30.007,0h-.015A29.981,29.981,0,0,0,5.711,47.584L1.972,58.729,13.5,55.042A29.995,29.995,0,1,0,30.007,0Z" fill="#4caf50"/>
  <path id="Trazado_409" data-name="Trazado 409" d="M142.158,145.73c-.724,2.044-3.6,3.739-5.887,4.234-1.568.334-3.615.6-10.507-2.258-8.816-3.652-14.494-12.611-14.936-13.192-.424-.581-3.562-4.744-3.562-9.049a9.577,9.577,0,0,1,3.067-7.3,4.359,4.359,0,0,1,3.067-1.076c.371,0,.705.019,1,.034.881.038,1.324.09,1.9,1.481.724,1.744,2.486,6.049,2.7,6.491a1.786,1.786,0,0,1,.127,1.624,5.185,5.185,0,0,1-.971,1.376c-.443.51-.863.9-1.305,1.448-.405.476-.862.986-.353,1.867a26.629,26.629,0,0,0,4.867,6.049,22.055,22.055,0,0,0,7.035,4.339,1.9,1.9,0,0,0,2.115-.334,36.3,36.3,0,0,0,2.344-3.1,1.674,1.674,0,0,1,2.152-.652c.81.281,5.1,2.4,5.978,2.839s1.462.652,1.676,1.024A7.471,7.471,0,0,1,142.158,145.73Z" transform="translate(-94.694 -103.367)" fill="#fafafa"/>
</svg>
